<?xml version="1.0" encoding="UTF-8"?>
<svg id="Layer_2" data-name="Layer 2" xmlns="http://www.w3.org/2000/svg" viewBox="0 0 965.78 952.99">
  <defs>
    <style>
      .cls-1 {
        fill: #231f20;
        font-family: SignPainter-HouseScript, SignPainter;
        font-size: 127.11px;
      }
    </style>
  </defs>
  <g id="Layer_1-2" data-name="Layer 1">
    <g>
      <g>
        <path d="M578.24,481.75c-.15,1.22-3.34.69-4.14.57-6.49-.95-12.76-5.54-12.77-12.58-.01-8.02,10.38-10.42,11.08-18.82,1.39-16.47-28.92-16.33-29.21-33.77-.14-8.34,7.65-13.02,9.3-19.88,4.2-17.41-16.38-27.5-24.46-39.52-16.9-25.13,15.71-45.26,25.14-65.57,17.46-37.62-15.77-81.76-50.65-94.48-52.28-19.07-106.2,45.77-102.61,94.89.34,4.59,2.11,9.29,2.58,13.65.07.68.46,2.43-.64,2.26-.97-4.33-2.82-8.45-3.74-12.81-9.04-43.21,26.79-96.24,68.24-108.54,52.82-15.67,115.46,46.23,100.66,99.43-4.84,17.4-15.61,26.3-25.74,39.78-24.9,33.16,19.78,35.51,20.14,65.52.14,11.65-7.16,13.5-10.26,21.58-6.43,16.76,24.23,18.78,25.77,33.56,1.39,13.43-14.19,13.58-12.99,25.32.62,6.08,8.92,9.52,14.28,9.41Z"/>
        <path d="M420.01,289.68c-7.09,25.22-22.87,45.09-43.15,60.96-29.12,22.8-50.67,28.53-52.85,71.05-2.01,39.13,2.04,79.55.65,118.8,1.28,7.15.93,15.61,4.44,22.16,6.56,12.25,23.92,4.43,34.22,2.84,25.36-3.9,50.14-5.44,73.99-16.16,10.66-4.79,24.07-15.09,35.06-17.48.67-.15,3.44-.75,3.41.49-15.29,4.81-27.25,16.64-41.47,23.72-21.26,10.58-60.21,17.89-84.18,21.53-32.49,4.95-35.24-16.06-36.46-42.98-1.41-31.17-1.73-66.83-.68-98,1.11-32.76,4-52.99,31.6-72.85,22.85-16.45,48.5-27.47,63.37-53.39l12.05-20.7Z"/>
        <path d="M368.79,614.12l14.97,11.94c33.69,23.23,69.98,41.57,111.78,43.88,40.82,2.26,73.46-3.39,91.25-43.71,13.59-30.81,10.54-57.39-5.19-86.52-12.36-22.88-32.15-39.78-51.34-56.66,6.32,1.15,12.75,5.21,18.1,8.81,48.48,32.56,71.37,99.89,40.14,152.31-12.35,20.73-29.76,31.56-53.55,35.31-54.44,8.58-121.32-11.9-158.06-53.67-1.13-1.28-8.88-10.82-8.09-11.69Z"/>
        <path d="M532.62,252.46c-5.58,6.47-26.45,16.22-34.67,19.63-14.61,6.06-30.69,9.14-45.01,15.83-7.22,3.37-14.97,8.26-19.66,14.78l-.05,1.26c3.17,6.31,6.11,12.76,9.85,18.76,4.83,7.76,16.8,24.36,26.52,24.75,8.37.34,7.51-6.41,13.23-9.84-2.66-4.73-4.87-10.03-3.15-15.5,4.23,4.77,10.76,4.47,15.32,8.38l2.83-3.19c1.05-.18.65.82.5,1.47-1.25,5.36-3.69,5.8-7.04,8.54-5.23,4.27-6.19,4.96-10.33,10.43-4.14,5.47-10.49,6.56-16.85,4.54-14.71-4.68-28.16-32.12-31.46-46.38l-1.6-.65c-5.65,9.61-5.1,18.72-2.13,29.04,1.9,6.59,7.44,15.26,6.6,21.83-1.01,7.89-10.39,12.78-14.34,19.39-.95,1.58-1.06,3.99-2.45,5-4.23-11.21,11.6-15.68,11.07-25.65-.27-5-7.39-14.47-9.31-20.56-19.21-60.81,73.24-61.65,107.1-80.74,2.29-1.29,4.47-2.82,6.25-4.77.92.96-.56,2.91-1.2,3.66Z"/>
        <path d="M479.02,502.51l-8.56,2.13c-14.51,4.49-28.35,11.08-43.18,14.54-22.12,5.17-45.42,3.05-66.94,8.94-4.38,1.2-8.47,3.41-12.96,4.22,10.42-11.21,26.3-14.54,40.85-16.87.27-.98-.25-1.08-.64-1.63-2.69-3.88-6.77-7.44-9.61-11.79s-5.38-9.42-7.26-14.48c-1.32.38-1.39,2.09-1.65,3.21-1.69,7.5-2.44,20.84-5.64,27.45-.43.89-.7,1.33-1.79,1.13-.9-16.27-1.13-32.75.65-48.98,1.91-17.39,6.3-37.07,19.13-49.64.25,3.23-1.76,6.58-2.61,9.72-3.87,14.32-5.73,29.05-7.46,43.77,10.1,11.88,17.75,24.77,21.68,40.01.91.74,6.16.1,7.84-.07,7.51-.78,15.73-2.05,23.16-3.43,18.12-3.36,36.43-11.02,54.98-8.24Z"/>
        <path d="M528.5,411.47c1.25,1.48,4.8,3.52,6.29,5.06,22.27,23.1,7.05,54.89-18.8,66.5-.28-1.3.28-1.73.94-2.62,5.13-6.93,10.86-11.87,14.97-20.06,13.64-27.19-5.64-43.03-24.99-58.75,3.73-1.97,15.94,7.09,17.82,6.82,1.37-.94.63-.97.5-1.77-4.82-30.16-23.52-29.53-45.34-42.25-3.35-1.95-7.55-4.28-9.94-7.24,19.25,2.27,50.56,8.86,57.02,30.21.96,3.18,2.02,9.05,2.04,12.29.02,2.66-1.95,10.1-.51,11.81Z"/>
        <path d="M503.01,414.91l-6.51,2.89c-25.17,8.19-56.12,6.21-80.17-4.73-21.68-9.86-35.59-29.94-52.09-46.18,12.22,4.62,21.31,15.49,31.47,23.34,31,23.93,69.18,27.74,107.3,24.68Z"/>
        <path d="M482.27,470.72c-1.44,3-4.2,5.75-6.82,7.77-20.19,15.55-57.24,9.67-67.75-14.91.56-.57,10.82,5.95,12.41,6.72,20.34,9.93,41.57,9.22,62.16.42Z"/>
        <path d="M532.56,287.46c-5.6,6.31-8.28,7.95-11.41,16.79-2.98,8.41-2.81,26.14-15.58,23.42-2.37-.51-4.16-2.82-6.44-1.66-2.07-2.11,5.53-1.4,5.95-1.44,1.52-.17,4.38-.71,5.37-1.82,3.94-7.59,4.44-21.86,10.71-27.56,4.78-4.34,5.07-3.32,8.34-9.82,5.62-11.14,9.91-25.68,7.87-38.18l1.3-.67c8.83,12.52,3.32,30.29-6.13,40.94Z"/>
        <path d="M543.91,506.97c.11.14,2.2.82,3.22,1.69,1.03.87,4.15,3.45,3.54,4.89-9.17-4.75-20.05-4.16-29.52-6.8-1.83-.51-4.36-1.06-5.17-2.93,5.28-.73,10.59-.45,15.89-.66.79-.03,2.41.49,2.26-.64-9.65-2.72-19.71-3.4-29.49-5.22-1.05-.19-1.14.45-.98-1.26,8.64-4.38,19.22-4.2,28.12-.58,3.14,1.28,10.49,5.87,12.03,8.79.68,1.29-.07,2.52.09,2.73Z"/>
        <path d="M551.65,532.35c-8.05,2.52-16.65.73-24.96,1.32-4.72.33-10.36,2.2-14.93,2.58-8.93.73-18.3.43-26.26-3.9.84-2.24,3.11-.62,4.84-.61,22.87.19,34.78-6.75,59.04-.68.9.23,2.02,0,2.27,1.29Z"/>
        <path d="M510.8,486.29c.36,1.73-.45,1.12-1.28,1.61-3.39,2.02-7.63,5.1-11.33,6.21-4.87,1.46-10.74.95-15.45,2.06-2.46.58-4.57,2.35-6.96,3.09-.37-2.81,1.5-4.89,3.67-6.38,3.62-2.47,19.17-5.99,23.94-6.55,2.42-.28,4.97.08,7.4-.05Z"/>
        <path d="M520.49,290.3h-1.87c-2.26-6.64-11.43-8.28-16.85-12.68-.65-.53-4.73-4.09-3.94-4.81,8.61.77,25.9,6.17,22.66,17.49Z"/>
        <path d="M510.8,300.06c-.09,3.98-3.33,4.29-6.66,3.73-7.46-1.24-11.77-12.57-11.5-19.3,1.14-.23,1.6.59,2.28,1.29,4.51,4.66,7.72,15.16,15.88,14.29Z"/>
        <path d="M552.86,604.47c1.42.89.26,8.51.86,10.49.52,1.71,2.98,1.37,2.47,2.71-3.07,3.74-6.69,2.37-9.34-1.02-4.88-6.25-2.06-12.93,6.01-12.18Z"/>
        <path d="M553.6,521.32c-2.31-.61-4.18-2.03-6.52-2.88-8.57-3.12-17.6-3.31-26.55-4.57.65-.84,1.28-1.27,2.28-1.61,8.82-2.97,27.03-1.11,30.79,9.06Z"/>
        <path d="M550.35,525.21c-7.85-3.05-17.09-.42-24.63-4.21,7.02-3.51,20.92-4.32,24.63,4.21Z"/>
      </g>
      <g>
        <path d="M371.21,926.26l5.25-24.25c.78-7.07,1.84-14.33,2.85-21.68,3.47-25.43,6.22-51.85-6.03-74.93-20.87-39.35-63.27-48.63-96.18-71.35-21.08-14.55-16.82-28.34-26.94-48.59-7.71-15.44-20.51-27.54-28.88-42.52-9.23-16.52-13.61-35.28-21.93-52.22-5.37-10.93-11.66-21.76-17.06-32.37-.8-1.57-7.65-8.35-6.08-9.7,32.98-1.15,46.44,42.52,64.52,63.86-13.86,4.32-18.22,8.95-13.39,23.02,6.77,19.73,13.85,18.44,27.15,30.51,14.78,13.41,31.01,26.02,45.32,39.82,6.14,5.92,11.46,11.64,16.45,18.56.38-3.58-2.14-6.3-4.15-8.89-4.73-6.11-15.21-15.95-21.21-21.36-12.72-11.48-25.73-22.7-38.52-34.25-6.61-5.96-12.65-6.9-17.36-15.6-7.15-13.22-11.05-29.55,10.42-26.89,28.49,3.54,56.62,52.46,88.67,56.16l-32.81-20.04c-13.29-9.53-24.2-24.87-38.15-33.25-6.48-3.9-13.31-4.54-19-8.46-1.35-11.6-2.87-23.17-5.21-34.61-3.01-14.75-7-29.32-9.81-43.74-1.33-6.83-3.59-13.67-4.88-20.52,9.31-3.39,19.06-.06,23,9.26,6.84,16.18,12.14,30.31,15.29,47.88.79,4.39.14,8.94,1.08,14.03,3.06,16.69,16.24,30.77,16.96,48.28,3.61.39,2.82-.19,2.44-3.12-1.87-14.46-10.39-26.48-14.12-39.45-5.32-18.49-2.22-41.63-17.14-56.99,12.28-7.2,21.9,2.78,26.32,13.47,2.76,6.68,5.68,25.63,8.73,29.72,1.88,2.53,10.69,5.2,14.35,9,4.11,4.28,9.44,16.32,12.17,22.15,10.57,22.58,15.15,46.02,24.31,69.07,62.83,29.94,122.08,65.02,126.92,142.22,1.34,21.33-3.55,42-2.79,63.21.7,19.51,4.11,39.43,5.5,59.04.13,1.84.77,3.12,1.41,4.73.47.9.88,1.83,1.24,2.77h.14c.66-21.24-4.61-42.59-5.55-63.8-1-22.61,4.26-44.52,2.79-67.33-4.9-76.18-63.71-113.48-126.28-142.86-7.79-15.63-10.55-33.1-16.49-49.42-3.62-9.95-14.25-35.88-21.11-42.74-3.14-3.14-12.19-6.7-13.33-8.3-2.98-4.18-5.7-21.55-8.48-28.25-4.92-11.89-14.43-23.16-28.49-17.48-2.78-15.97-17.66-24.83-32.8-17.68-3.41,14.51,3.92,24.58,7.39,36.88,5.18,18.43,9.26,37.29,11.65,56.3l-30.24-43.21c-10.45-13.43-26.23-19.77-42.52-12.41,9.13,10.92,18.04,23,24.95,35.47,11.37,20.54,16.57,43.63,28.37,63.64,8.37,14.2,20.72,25.79,27.97,40.69,11.64,23.94,4.92,34.62,31.42,50.97,27.3,16.83,59.22,26.82,80.87,52.33,33.8,39.83,14.3,88.61,11.04,135.21Z"/>
        <path d="M781.77,546.63c-22.69-7.76-36.47,9.4-48.65,25.45l-19.99,30.11c.94-13.48,3.81-28.32,7.25-41.48,2.35-8.99,16.81-43.82,10.63-49.88-9.63-9.45-33.48,3.12-31.64,17.21-15.01-6.09-25.47,7.31-30.25,19.85-2.25,5.9-4.59,21.52-7.56,25.4-1.42,1.86-7.44,4.23-10.11,6.36-20.58,16.44-29.7,70.83-40.31,94.95-59.56,26.78-117.7,63.41-125.95,134.27-3.21,27.57,2.8,54.48,1.41,82.43-.94,18.92-5.41,37.89-5.55,56.93h.89c.53-1.24,1.17-2.42,1.87-3.56.2-18.32,4.61-36.54,5.53-54.74,2.28-44.89-10.8-80.84,11.59-124.36,23.52-45.73,69.38-66.5,112.56-89.3,11.64-22.69,21.07-81.85,42.86-95.83,2.32-1.49,7.88-2.77,8.39-3.28,1.51-1.52,7.35-27.81,9.89-33.37,5.27-11.52,15.82-17.73,27.49-10.26-.97-13.58,11.21-25.93,24.74-20.58l-4.45,27.8c-8.15,23.43-11.89,48.01-15.39,72.5-27.39,5.57-41.57,31.74-64.08,45.77l-25.93,14.56c11.97-2.14,23.62-9.73,33.4-16.7,16.83-11.99,35.87-37.4,56.69-39.45,9.19-.9,17.09,2.02,15.33,12.57-.2,1.2-3.4,11.57-3.84,12.02-.14.14-2.05-1.36-3.99-.7-2.91.99-8.3,7.11-11.78,7.07-6.71-3.25-12.05-8.67-17.15-13.94l10.98-10.28-13.09,9.59c-.99,2.14,15.11,16.24,18.47,17.25,2.84.62,11.67-6.95,14.54-8.99,1.02-.22.92,1.4.66,2.03-2.91,7.11-15.35,13.17-21.3,18.52-5.93,5.33-9.96,12.05-15.74,17.21-9.01,8.05-20.5,15-29.57,23.98-5.28,5.23-13.13,11.73-14.37,19.26,7.14-9.19,15.74-17.9,24.68-25.42,12.53-10.54,21.68-18.49,33.67-29.5,9.02-8.28,20.31-12.02,26.06-23.38,7.59-15,10.17-28.38-10.27-32.24,19.36-21.19,31.5-65.87,65.91-63.85-.82,3.85-5.13,6.2-6.69,9.08-13.31,24.52-21.61,47.84-32.89,72.84-10.39,23.02-29.35,39.57-38.36,61.88-7.6,18.81-4.27,28.26-23.24,41.3-28.5,19.59-60.42,27.18-84.89,55.17-32.24,36.88-18.24,82.57-12.6,126.6l5.05,18.96c-2.17-14-4.91-27.98-6.66-42.07-.71-5.69-1.38-11.15-1.96-16.41-4.88-44.05-3.37-73.5,38.99-104.09,19.02-13.73,41.69-21.59,60.69-34.06,22.29-14.63,18.54-22.16,27.37-44.03,7.48-18.53,22.27-31.99,31.97-49.05,14.84-26.07,20.09-52.22,37.99-78.73,2.6-3.85,12.46-14.41,13.47-16.75.99-2.3-1.33-2.2-2.74-2.68Z"/>
        <path d="M670.53,632.41l-2.71-.66c1.73-15.8,12.16-30.13,15.78-44.65,4.4-17.64,2-38.87,15.77-53.56-1.58,7.99-6.08,15.06-7.82,23.07-2.61,12.01-1.68,23.69-5.52,35.68-4.19,13.09-14.41,25.46-15.5,40.13Z"/>
        <path d="M309.41,655.75c2.5-12.39-4.58-20.61-7.85-31.3-4.46-14.58-6.44-29.79-11.37-44.23,8.78,11.28,10.81,28.45,14.73,42.24,2.79,9.8,8.51,17.7,7.27,28.53-.23,2.05-.28,4.24-2.78,4.75Z"/>
        <path d="M662.3,580.23l-21.95,75.51c-3.86-12.72,4.01-24.82,7.53-37.07,3.31-11.51,4.92-25.42,11.01-35.73,1.05-1.77-.25-3.46,3.41-2.7Z"/>
        <path d="M235.25,640.66l14.17,8.01,16.02-14.2-13.71-13.03,16.14,13.01c.31,3.91-14.58,14.25-18.21,16.7l-14.41-10.48Z"/>
      </g>
      <text class="cls-1" transform="translate(100 372.24) rotate(-66.7)"><tspan x="0" y="0">L</tspan></text>
      <text class="cls-1" transform="translate(117.72 331.36) rotate(-60.64)"><tspan x="0" y="0">e</tspan></text>
      <text class="cls-1" transform="translate(138.95 293.3) rotate(-53.67)"><tspan x="0" y="0">a</tspan></text>
      <text class="cls-1" transform="translate(171.33 249.72) rotate(-46.21)"><tspan x="0" y="0">n</tspan></text>
      <text class="cls-1" transform="translate(207.08 212.67) rotate(-38.94)"><tspan x="0" y="0">n</tspan></text>
      <text class="cls-1" transform="translate(246.61 180.77) rotate(-31.54)"><tspan x="0" y="0">a</tspan></text>
      <text class="cls-1" transform="translate(284.77 157.56) rotate(-26.78)"><tspan x="0" y="0">’</tspan></text>
      <text class="cls-1" transform="translate(300.76 148.99) rotate(-23.53)"><tspan x="0" y="0">s</tspan></text>
      <text class="cls-1" transform="translate(339.76 132.47) rotate(-18.21)"><tspan x="0" y="0"> </tspan></text>
      <text class="cls-1" transform="translate(368.93 121.99) rotate(-11.34)"><tspan x="0" y="0">H</tspan></text>
      <text class="cls-1" transform="translate(432.28 110.19) rotate(-3.7)"><tspan x="0" y="0">e</tspan></text>
      <text class="cls-1" transform="translate(476.79 107.77) rotate(1.73)"><tspan x="0" y="0">l</tspan></text>
      <text class="cls-1" transform="translate(509.56 108.4) rotate(7.77)"><tspan x="0" y="0">p</tspan></text>
      <text class="cls-1" transform="translate(561.2 116.19) rotate(13.53)"><tspan x="0" y="0">i</tspan></text>
      <text class="cls-1" transform="translate(589.7 122.63) rotate(19.38)"><tspan x="0" y="0">n</tspan></text>
      <text class="cls-1" transform="translate(637.91 139.68) rotate(26.84)"><tspan x="0" y="0">g</tspan></text>
      <text class="cls-1" transform="translate(686.06 164.94) rotate(32.95)"><tspan x="0" y="0"> </tspan></text>
      <text class="cls-1" transform="translate(712.55 181.13) rotate(39.75)"><tspan x="0" y="0">H</tspan></text>
      <text class="cls-1" transform="translate(761.44 222.46) rotate(48.06)"><tspan x="0" y="0">a</tspan></text>
      <text class="cls-1" transform="translate(797.54 263.02) rotate(55.53)"><tspan x="0" y="0">n</tspan></text>
      <text class="cls-1" transform="translate(826.54 305.42) rotate(62.98)"><tspan x="0" y="0">d</tspan></text>
      <text class="cls-1" transform="translate(850.55 353.73) rotate(69.8)"><tspan x="0" y="0">s</tspan></text>
    </g>
  </g>
</svg>