<?xml version="1.0" encoding="UTF-8"?>
<svg xmlns="http://www.w3.org/2000/svg" viewBox="0 0 110.98 111.18" fill="currentColor">
  <path d="M110.98,53.77v3.59c-1.81,43.6-50.95,69.09-87.25,43.78C-8.99,78.32-7.61,29.46,26.23,8.41c36.42-22.66,83.01,3.14,84.76,45.36ZM52.74.68C11.24,2.76-13.34,48.78,8.63,84.41c23.34,37.85,80.01,33.63,97.37-7.24C121.85,39.84,93.07-1.35,52.74.68Z"/>
  <path d="M73.39,58.32l.6-.48c1.16-.49-.55,2.1-.61,2.26-1.22,3.14-.04,10.21,1.27,13.37.48,1.16,1.24,2.78,2.57,3.05.48-3.61.47-6.62,3.35-9.23.99-.9,1.18-.12,1.41-1.94.18-1.4.74-6.15.24-7.13-.18-.35-1.17-1.15-1.16-1.47.02-.77,1.45.33,1.55.6.57,0,.32-2.66.36-3.23.45-5.67,1.65-12.36,1.2-17.97-.24-3.04-1.94-5.78-2.89-8.61-1.24-3.7-2.08-9.5-2.17-13.41-.02-1.03.19-1.69,1.21-2.04.53,4.37,0,9.15,1.03,13.46s3.64,7.16,3.77,12.27c.21,8.06-1.44,18.14-2.16,26.36-.31,3.57-.14,6.85-1.08,10.42-.37,1.41-1.82,5.62-3.84,3.83-1.46-1.3-2.72-1.91-3.67-3.75-2.47-4.79-1.99-8.8-1.94-13.85.03-3.71.06-7.44-.13-11.14-1.03-2.66-10.24.11-10.78,1.19-.44.89.42,1.2.74,1.9.92,1.99.7,3.24,1.17,5.05.26,1.01,1.65,2.22,1.93,3.34.25.98-.06,1.99.22,2.89.26.85,2.22,2.73,2.81,3.89.69,1.37,1.54,4.56.45,5.8-.78.89-2.62-.57-2.64.23,1.76,1.95,3.04,4.04,3.32,6.73.15,1.49.14,2.6-1.59,2.91-2.76.5-5.44-3.23-7.49-4.73.19.66-.29,1.48-.24,2.03s1.32,2.07,1.61,2.95c.69,2.13.61,5.91-2.27,6.24-1.16.13-1.4-.49-1.98-1.27-1.5-2.04-3.33-5.35-4.59-7.63-1.69-3.08-3.08-6.24-4.39-9.5-1.17.99-.08,1.5.2,2.43.63,2.08-.57,2.37-.57,2.95,0,.76,2.04,1.84,1.34,4.44-.13.49-.74,1.05-.79,1.35-.06.39.34.84.34,1.35s-.31,1.35-.4,1.96c-.09.65.22,1.71-.24,2.16-.43.42-1.55.37-2.04.84-.38.36-.74,1.67-1.12,2.23-1.33,1.94-2.27,1.19-3.78,1.97-.81.42-.87,1.39-2.3.35l-.23-2.65c-.83.09-1.63.82-2.41.95-.98.16-2.59-.24-3.25-.1-.28.06-2.22,1.75-2.86,2.13-1.69,1.01-3.74,1.83-5.73,1.81v-.72c2.29-.09,4.62-1.21,6.45-2.54.49-.36,1.19-1.36,1.63-1.49,1.04-.31,2.44.17,3.43.08,1.4-.12,2.67-1.29,4.01-1.74s7.39-.99,7.69-1.9c.67-2.02-3.27-2.44-4.52-2.24.1-.36-.33-.97.36-.97,1.5,0,2.98.73,4.43.97.42-3.58-2.97-3.28-5.16-4.05-.77-.27-.83-.97.37-.87,1.4.12,4.39,1.82,4.63,1.78,1.5-.29.69-3.07-.03-3.98-2.09-2.65-6.92-.81-7.24-1.26-.08-.41.09-.5.42-.66.85-.42,3.46-.38,4.48-.29.44.04.78.42,1.23.46,2.7.26.71-4.59-1.95-5.01-5.32-.84-14.53,4.94-17.92,8.87-2.65,3.08,1.74,4.47,1.53,7.4-.96,0-.81-1.18-1.19-1.8-.71-1.17-2.34-1.82-1.93-3.94-1.15.54-1.81,1.66-3.05,2.09-.67.24-2.2.74-2.21-.41,2.4.22,4.72-2.19,6.47-3.71,2.63-2.27,4.83-4.92,7.98-6.63.87-.48,3.36-1.27,3.7-1.81.65-1.02,1.99-4.78,2.32-6.06.83-3.15.78-6.16,1.92-9.34.96-2.67,1.28-3.76,1.07-6.57-.56-7.31,4.8-17.25,7.64-23.76,2.51-5.75,3.64-11.99,5.19-18.04l.84-.12c-1.7,6.07-2.67,12.7-5.23,18.48-.81,1.83-1.99,3.49-2.85,5.3-2.6,5.47-3.98,11.51-4.62,17.53l3.47-4.07.59.59c-4.06,2.91-5.2,7.8-4.31,12.58h-.72c-.08-.08.19-1.82-.48-1.91-.39,2.22-.96,4.4-1.41,6.61-.13.61,0,1.31-.13,2.02-.47,2.4-1.8,4.5-2.53,6.81,2.38-.28,4.34-1.32,6.82-.58.76.23,1.31,1.06,1.81.35,1.62-2.85,4.36-5.75,4.76-9.13.12-.98-.19-4.12.14-4.65.15-.24.33-.28.6-.24v2.63c2.02-.84,3.74-2.71,4.99-4.47.41-.58,2.8-4.51,2.44-4.86l-2.96.22-.03-.94h3.83c.24,0,2.75-1.17,3.42-1.37,1.55-.46,3.23-.84,4.84-.79-.17-.44-1.2-.57-1.62-.65-.96-.19-4.9-.06-3.49-1.23,2.46.05,4.91.61,7.02,1.88.49-.6-2.16-3.75-2.44-4.39-.36-.83.34-.7.89-.16,1.03,1,3.23,5.26,3.23,6.59v8.5ZM62.61,60v-4.19c0-.32-1.27-3.24-1.56-3.23-.69,1.28-2.9,3.3-2.41,4.8.42,1.31,2.75,3.32,3.43,5.43.49,1.51.02,1.63.03,2.82.01,1.32.65,1.04,1.14,1.64.72.87,1.5,2.11,2.04,3.11.77,1.42.67,3.56,3.2,2.57.54-2.8-.93-5.65-3.01-7.44l-.22,1.06-.74.14c.15-2.39.74-5.24-1.08-7.18-.23.49-.19.56-.84.48ZM65.48,75.57c.25-2.17-.51-4.32-1.63-6.15-.52-.84-1.69-2.74-2.78-2.24l-.37-.35c1.77-2.38.2-5.06-1.25-7.14-.27-.39-1.41-2.14-1.73-2.07l-3.02,2.73c1.13,2.43,2.21,4.95,2.41,7.66.05.77-.26,2.06-.14,2.53.17.71,1.99,2.67,2.47,3.77.43,1,.54,2.5,1.02,3.29.53.88,4.6,4.44,5.59,4.95,3.65,1.91,2.88-2.1,2.09-4.25-.38-1.04-1.37-3.22-2.64-2.74ZM56.15,71.5l-.37.72c-1.11-.15,0-1.18.24-1.92,1.03-3.29-.7-6.71-2.15-9.58-.87,1.2-.69,2.75-1.28,4.23-.89,2.23-3.41,4.09-3.09,6.6.17,1.37,1.63,4.5,2.29,5.86,1.94,4.03,4.63,7.71,6.87,11.57,2.53,1.14,3-2.32,2.7-4.13-.16-.95-1.16-3.3-2.34-2.57-.09-1.15.74-2.09.73-3.22-.04-2.75-1.36-5.59-3.25-7.55h-.35ZM81.77,67.66c-2.96.88-3.79,6.34-3.6,8.99.14,1.9,1.15,1.67,2.03.34.57-.86,1.57-4.62,1.57-5.62v-3.71ZM45.37,89.46l-3.11.6-.72,2.51c1.83,0,3.6-1.23,3.83-3.11ZM41.05,90.18c-1.75-.08-1.09,1.97-1.2,3.11l.74-.14.46-2.97Z"/>
  <path d="M23.82,44.43h.35c1.13-1.28,3.64-3.75,5.29-1.93,2.27,2.49-2.18,10.16-5.31,10.3s-7.58-7.52-5.49-10.28c1.29-1.7,4.59.32,5.15,1.91ZM19.42,42.56c-.83.28-.71,2.46-.62,3.17.31,2.34,3.29,7.05,6.03,6.31,2.4-.65,6.08-7.14,4.26-9.18-1.68-1.88-4.65,2.38-5.14,2.28-1.02-1.28-2.65-3.23-4.54-2.58Z"/>
  <path d="M18,59.45c-1.96,1.65-6.32-1.93-6.78-3.99-.7-3.13,2.39-2.4,4.21-1.45,1.15-3.9,4.46-3.37,4.32.83-.03,1.07-.94,3.94-1.75,4.61ZM13.12,57.52c1.7,1.7,4.28,2.92,5.47.01,1.66-4.06-.66-8.89-2.92-2.8-3.55-2.13-5.75-.41-2.55,2.79Z"/>
  <path d="M64.04,76.29c.23.88-2.53,1.8-2.63,1.67l.03-.93,2.61-.74Z"/>
</svg>